<svg xmlns="http://www.w3.org/2000/svg" viewBox="0 0 650 200" width="100%" height="100%">
  <rect width="650" height="200" rx="12" fill="#F9FAFB" stroke="#E5E7EB" stroke-width="2"/>
  <text x="325" y="25" text-anchor="middle" font-size="14" font-family="system-ui, -apple-system, sans-serif" font-weight="bold" fill="#1F2937">K-Fold Cross Validation (K = 5)</text>
  
  <!-- Row Headers -->
  <text x="40" y="62" font-size="11" font-family="system-ui, -apple-system, sans-serif" font-weight="bold" fill="#1F2937">Round 1</text>
  <text x="40" y="92" font-size="11" font-family="system-ui, -apple-system, sans-serif" font-weight="bold" fill="#1F2937">Round 2</text>
  <text x="40" y="122" font-size="11" font-family="system-ui, -apple-system, sans-serif" font-weight="bold" fill="#1F2937">Round 3</text>
  <text x="40" y="152" font-size="11" font-family="system-ui, -apple-system, sans-serif" font-weight="bold" fill="#1F2937">Round 4</text>
  <text x="40" y="182" font-size="11" font-family="system-ui, -apple-system, sans-serif" font-weight="bold" fill="#1F2937">Round 5</text>
  
  <!-- Column Headers -->
  <text x="145" y="42" text-anchor="middle" font-size="10" font-family="system-ui, -apple-system, sans-serif" fill="#4B5563">Fold 1</text>
  <text x="245" y="42" text-anchor="middle" font-size="10" font-family="system-ui, -apple-system, sans-serif" fill="#4B5563">Fold 2</text>
  <text x="345" y="42" text-anchor="middle" font-size="10" font-family="system-ui, -apple-system, sans-serif" fill="#4B5563">Fold 3</text>
  <text x="445" y="42" text-anchor="middle" font-size="10" font-family="system-ui, -apple-system, sans-serif" fill="#4B5563">Fold 4</text>
  <text x="555" y="42" text-anchor="middle" font-size="10" font-family="system-ui, -apple-system, sans-serif" fill="#4B5563">Fold 5</text>
  
  <!-- Helper function to draw cells -->
  <!-- R1 -->
  <rect x="100" y="50" width="90" height="20" rx="4" fill="#FEE2E2" stroke="#EF4444" stroke-width="1.5"/>
  <text x="145" y="64" text-anchor="middle" font-size="10" fill="#B91C1C" font-weight="bold">Validation</text>
  <rect x="200" y="50" width="90" height="20" rx="4" fill="#D1FAE5" stroke="#10B981" stroke-width="1.5"/>
  <text x="245" y="64" text-anchor="middle" font-size="10" fill="#065F46">Train</text>
  <rect x="300" y="50" width="90" height="20" rx="4" fill="#D1FAE5" stroke="#10B981" stroke-width="1.5"/>
  <text x="345" y="64" text-anchor="middle" font-size="10" fill="#065F46">Train</text>
  <rect x="400" y="50" width="90" height="20" rx="4" fill="#D1FAE5" stroke="#10B981" stroke-width="1.5"/>
  <text x="445" y="64" text-anchor="middle" font-size="10" fill="#065F46">Train</text>
  <rect x="510" y="50" width="90" height="20" rx="4" fill="#D1FAE5" stroke="#10B981" stroke-width="1.5"/>
  <text x="555" y="64" text-anchor="middle" font-size="10" fill="#065F46">Train</text>
  
  <!-- R2 -->
  <rect x="100" y="80" width="90" height="20" rx="4" fill="#D1FAE5" stroke="#10B981" stroke-width="1.5"/>
  <text x="145" y="94" text-anchor="middle" font-size="10" fill="#065F46">Train</text>
  <rect x="200" y="80" width="90" height="20" rx="4" fill="#FEE2E2" stroke="#EF4444" stroke-width="1.5"/>
  <text x="245" y="94" text-anchor="middle" font-size="10" fill="#B91C1C" font-weight="bold">Validation</text>
  <rect x="300" y="80" width="90" height="20" rx="4" fill="#D1FAE5" stroke="#10B981" stroke-width="1.5"/>
  <text x="345" y="94" text-anchor="middle" font-size="10" fill="#065F46">Train</text>
  <rect x="400" y="80" width="90" height="20" rx="4" fill="#D1FAE5" stroke="#10B981" stroke-width="1.5"/>
  <text x="445" y="94" text-anchor="middle" font-size="10" fill="#065F46">Train</text>
  <rect x="510" y="80" width="90" height="20" rx="4" fill="#D1FAE5" stroke="#10B981" stroke-width="1.5"/>
  <text x="555" y="94" text-anchor="middle" font-size="10" fill="#065F46">Train</text>
  
  <!-- R3 -->
  <rect x="100" y="110" width="90" height="20" rx="4" fill="#D1FAE5" stroke="#10B981" stroke-width="1.5"/>
  <text x="145" y="124" text-anchor="middle" font-size="10" fill="#065F46">Train</text>
  <rect x="200" y="110" width="90" height="20" rx="4" fill="#D1FAE5" stroke="#10B981" stroke-width="1.5"/>
  <text x="245" y="124" text-anchor="middle" font-size="10" fill="#065F46">Train</text>
  <rect x="300" y="110" width="90" height="20" rx="4" fill="#FEE2E2" stroke="#EF4444" stroke-width="1.5"/>
  <text x="345" y="124" text-anchor="middle" font-size="10" fill="#B91C1C" font-weight="bold">Validation</text>
  <rect x="400" y="110" width="90" height="20" rx="4" fill="#D1FAE5" stroke="#10B981" stroke-width="1.5"/>
  <text x="445" y="124" text-anchor="middle" font-size="10" fill="#065F46">Train</text>
  <rect x="510" y="110" width="90" height="20" rx="4" fill="#D1FAE5" stroke="#10B981" stroke-width="1.5"/>
  <text x="555" y="124" text-anchor="middle" font-size="10" fill="#065F46">Train</text>
  
  <!-- R4 -->
  <rect x="100" y="140" width="90" height="20" rx="4" fill="#D1FAE5" stroke="#10B981" stroke-width="1.5"/>
  <text x="145" y="154" text-anchor="middle" font-size="10" fill="#065F46">Train</text>
  <rect x="200" y="140" width="90" height="20" rx="4" fill="#D1FAE5" stroke="#10B981" stroke-width="1.5"/>
  <text x="245" y="154" text-anchor="middle" font-size="10" fill="#065F46">Train</text>
  <rect x="300" y="140" width="90" height="20" rx="4" fill="#D1FAE5" stroke="#10B981" stroke-width="1.5"/>
  <text x="345" y="154" text-anchor="middle" font-size="10" fill="#065F46">Train</text>
  <rect x="400" y="140" width="90" height="20" rx="4" fill="#FEE2E2" stroke="#EF4444" stroke-width="1.5"/>
  <text x="445" y="154" text-anchor="middle" font-size="10" fill="#B91C1C" font-weight="bold">Validation</text>
  <rect x="510" y="140" width="90" height="20" rx="4" fill="#D1FAE5" stroke="#10B981" stroke-width="1.5"/>
  <text x="555" y="154" text-anchor="middle" font-size="10" fill="#065F46">Train</text>
  
  <!-- R5 -->
  <rect x="100" y="170" width="90" height="20" rx="4" fill="#D1FAE5" stroke="#10B981" stroke-width="1.5"/>
  <text x="145" y="184" text-anchor="middle" font-size="10" fill="#065F46">Train</text>
  <rect x="200" y="170" width="90" height="20" rx="4" fill="#D1FAE5" stroke="#10B981" stroke-width="1.5"/>
  <text x="245" y="184" text-anchor="middle" font-size="10" fill="#065F46">Train</text>
  <rect x="300" y="170" width="90" height="20" rx="4" fill="#D1FAE5" stroke="#10B981" stroke-width="1.5"/>
  <text x="345" y="184" text-anchor="middle" font-size="10" fill="#065F46">Train</text>
  <rect x="400" y="170" width="90" height="20" rx="4" fill="#D1FAE5" stroke="#10B981" stroke-width="1.5"/>
  <text x="445" y="184" text-anchor="middle" font-size="10" fill="#065F46">Train</text>
  <rect x="510" y="170" width="90" height="20" rx="4" fill="#FEE2E2" stroke="#EF4444" stroke-width="1.5"/>
  <text x="555" y="184" text-anchor="middle" font-size="10" fill="#B91C1C" font-weight="bold">Validation</text>
</svg>